<svg version="1.1" id="Layer_1" xmlns="http://www.w3.org/2000/svg" xmlns:xlink="http://www.w3.org/1999/xlink" x="0px" y="0px"
	 width="100%" viewBox="0 0 160 160" enable-background="new 0 0 160 160" xml:space="preserve">
<path fill="#DBDBDB" opacity="1.000000" stroke="none" 
	d="
M161.000000,63.000000 
	C161.000000,66.361290 161.000000,69.722572 160.614044,73.639282 
	C159.818695,75.695587 159.184158,77.175385 159.041199,78.701241 
	C158.570541,83.724808 158.476547,88.788887 157.875870,93.793968 
	C156.601196,104.414780 149.898743,112.432457 144.581879,121.155624 
	C137.977570,131.991028 129.666351,141.054855 118.268692,146.707764 
	C111.937523,149.847855 105.212898,152.647476 98.348038,154.136230 
	C90.910904,155.749054 83.085312,156.310989 75.465538,156.087906 
	C70.153442,155.932404 64.845764,153.874420 59.635666,152.330383 
	C46.462215,148.426331 34.051643,143.469650 23.947922,133.278534 
	C12.734774,121.968384 7.274727,108.107193 2.968684,93.398766 
	C2.611389,92.178322 1.670006,91.128891 1.000001,90.000000 
	C1.000000,81.979103 1.000000,73.958199 1.350699,65.400711 
	C2.176506,64.238792 2.829249,63.681900 3.100384,62.978008 
	C8.088574,50.028297 15.091212,38.245705 24.022690,27.670704 
	C26.213936,25.076239 29.057146,22.612967 32.117519,21.250071 
	C41.573475,17.038980 51.571922,13.977130 60.817001,9.378051 
	C73.790970,2.923987 86.738716,6.286050 99.537376,8.572765 
	C107.052856,9.915543 114.515358,12.920782 121.321571,16.479128 
	C127.987038,19.963888 134.342010,24.507011 139.845581,29.643795 
	C148.697418,37.905704 154.395599,48.419174 158.195236,59.947666 
	C158.589340,61.143360 160.039734,61.990910 161.000000,63.000000 
M146.497177,112.006607 
	C151.698044,103.141586 153.977905,93.520279 155.617538,83.367737 
	C158.221817,67.242226 153.662506,52.892120 144.564453,40.734253 
	C137.211700,30.908663 128.016983,22.408663 115.548828,17.388729 
	C94.483498,8.907393 73.814613,6.652582 52.668915,15.383852 
	C44.949131,18.571424 37.265587,22.409098 30.532169,27.285084 
	C21.507479,33.820290 15.581064,43.168938 11.195286,53.485043 
	C6.434226,64.683884 3.221652,76.185989 6.010134,88.282036 
	C7.964725,96.760788 11.218245,104.942596 13.938455,113.241684 
	C17.097046,122.878235 24.770800,129.412262 31.894419,135.417999 
	C38.741844,141.190872 47.730431,144.902527 56.321987,148.022293 
	C71.331367,153.472519 86.955872,153.606873 102.316208,149.278381 
	C122.276733,143.653610 137.741226,132.293442 146.497177,112.006607 
z"/>
<path fill="#D8D8D8" opacity="1.000000" stroke="none" 
	d="
M161.000000,62.545891 
	C160.039734,61.990910 158.589340,61.143360 158.195236,59.947666 
	C154.395599,48.419174 148.697418,37.905704 139.845581,29.643795 
	C134.342010,24.507011 127.987038,19.963888 121.321571,16.479128 
	C114.515358,12.920782 107.052856,9.915543 99.537376,8.572765 
	C86.738716,6.286050 73.790970,2.923987 60.817001,9.378051 
	C51.571922,13.977130 41.573475,17.038980 32.117519,21.250071 
	C29.057146,22.612967 26.213936,25.076239 24.022690,27.670704 
	C15.091212,38.245705 8.088574,50.028297 3.100384,62.978008 
	C2.829249,63.681900 2.176506,64.238792 1.350699,64.932053 
	C1.000000,62.629444 1.000000,60.258884 1.354891,57.398697 
	C2.671301,55.850563 3.881156,54.928841 4.552256,53.710384 
	C7.823718,47.770668 10.559866,41.496212 14.251643,35.840332 
	C17.285555,31.192312 20.776720,26.422295 25.145473,23.147442 
	C36.737118,14.458246 49.985020,8.877898 63.872429,4.759079 
	C65.785011,4.191832 67.300613,2.286073 69.000000,1.000000 
	C76.020950,1.000000 83.041893,1.000000 90.597473,1.347775 
	C94.005547,2.267534 96.971619,2.559681 99.731987,3.473301 
	C104.570747,5.074821 109.479378,6.672422 114.000938,8.974449 
	C120.130646,12.095226 125.963661,15.812181 131.838913,19.412161 
	C133.932480,20.694962 135.829971,22.320074 137.727554,23.896521 
	C145.933884,30.714039 153.129456,38.302944 157.153229,48.481457 
	C157.841492,50.222458 159.688370,51.505432 161.000000,53.000000 
	C161.000000,56.030594 161.000000,59.061188 161.000000,62.545891 
z"/>
<path fill="#D8D8D8" opacity="1.000000" stroke="none" 
	d="
M1.000001,90.464645 
	C1.670006,91.128891 2.611389,92.178322 2.968684,93.398766 
	C7.274727,108.107193 12.734774,121.968384 23.947922,133.278534 
	C34.051643,143.469650 46.462215,148.426331 59.635666,152.330383 
	C64.845764,153.874420 70.153442,155.932404 75.465538,156.087906 
	C83.085312,156.310989 90.910904,155.749054 98.348038,154.136230 
	C105.212898,152.647476 111.937523,149.847855 118.268692,146.707764 
	C129.666351,141.054855 137.977570,131.991028 144.581879,121.155624 
	C149.898743,112.432457 156.601196,104.414780 157.875870,93.793968 
	C158.476547,88.788887 158.570541,83.724808 159.041199,78.701241 
	C159.184158,77.175385 159.818695,75.695587 160.614044,74.097351 
	C161.000000,82.020897 161.000000,90.041801 160.647720,98.600204 
	C156.772797,105.612846 152.608719,111.828362 149.861008,118.617149 
	C144.138290,132.756210 133.139786,141.346359 120.397957,148.181534 
	C115.052811,151.048859 109.014992,152.610260 103.609505,155.383957 
	C98.423241,158.045227 93.238678,159.569397 87.392357,159.110001 
	C86.317711,159.025558 85.133591,160.334320 84.000000,161.000000 
	C83.250000,161.000000 82.500000,161.000000 81.276443,160.612274 
	C77.329422,159.691666 73.786964,159.432709 70.394554,158.578125 
	C56.318531,155.032196 42.515461,150.477982 30.683764,141.894760 
	C24.700520,137.554260 19.324398,132.018631 14.777452,126.165916 
	C10.899415,121.174202 8.719194,114.888054 5.537930,109.317284 
	C4.402688,107.329330 2.533938,105.760269 1.000000,104.000000 
	C1.000000,99.643097 1.000000,95.286201 1.000001,90.464645 
z"/>
<path fill="#CECECE" opacity="1.000000" stroke="none" 
	d="
M42.000000,161.000000 
	C36.311958,161.000000 30.623919,161.000000 24.426147,160.655518 
	C20.599165,157.169479 17.367214,153.931213 13.942968,150.910965 
	C9.712152,147.179306 5.321557,143.628784 1.000000,140.000000 
	C1.000000,134.311951 1.000000,128.623917 1.348549,122.509201 
	C2.933738,123.330063 4.362701,124.439781 5.373007,125.849525 
	C9.294953,131.322098 12.279156,137.770004 17.124781,142.200958 
	C23.255516,147.807053 30.911411,151.728241 37.793110,156.542496 
	C39.432529,157.689392 40.610035,159.496536 42.000000,161.000000 
z"/>
<path fill="#D6D6D6" opacity="1.000000" stroke="none" 
	d="
M161.000000,52.541931 
	C159.688370,51.505432 157.841492,50.222458 157.153229,48.481457 
	C153.129456,38.302944 145.933884,30.714039 137.727554,23.896521 
	C135.829971,22.320074 133.932480,20.694962 131.838913,19.412161 
	C125.963661,15.812181 120.130646,12.095226 114.000938,8.974449 
	C109.479378,6.672422 104.570747,5.074821 99.731987,3.473301 
	C96.971619,2.559681 94.005547,2.267534 91.066055,1.347775 
	C98.354256,1.000000 105.708504,1.000000 113.573555,1.352481 
	C115.957382,3.154905 117.728233,4.766556 119.721558,6.026131 
	C127.377647,10.863976 135.818665,14.761619 142.592056,20.603910 
	C148.583023,25.771334 152.711075,33.085827 157.751526,39.380379 
	C158.600632,40.440742 159.905640,41.136032 161.000000,42.000000 
	C161.000000,45.361286 161.000000,48.722576 161.000000,52.541931 
z"/>
<path fill="#C7C7C7" opacity="1.000000" stroke="none" 
	d="
M1.000000,30.000000 
	C1.000000,20.409504 1.000000,10.819007 1.000000,1.000000 
	C9.686226,1.000000 18.374451,1.000000 27.524458,1.367882 
	C26.992054,3.154320 26.180075,4.755978 24.971277,5.958870 
	C20.401035,10.506793 15.641014,14.864014 11.071110,19.412264 
	C7.620014,22.847002 4.350392,26.464079 1.000000,30.000000 
z"/>
<path fill="#C7C7C7" opacity="1.000000" stroke="none" 
	d="
M161.000000,134.000000 
	C161.000000,142.927780 161.000000,151.855560 161.000000,161.000000 
	C151.980255,161.000000 142.958786,161.000000 133.511093,160.656067 
	C140.463898,152.635284 147.770844,144.886658 155.282639,137.341980 
	C156.788361,135.829666 159.073975,135.093842 161.000000,134.000000 
z"/>
<path fill="#D3D3D3" opacity="1.000000" stroke="none" 
	d="
M42.466118,161.000000 
	C40.610035,159.496536 39.432529,157.689392 37.793110,156.542496 
	C30.911411,151.728241 23.255516,147.807053 17.124781,142.200958 
	C12.279156,137.770004 9.294953,131.322098 5.373007,125.849525 
	C4.362701,124.439781 2.933738,123.330063 1.348549,122.041260 
	C1.000000,119.299988 1.000000,116.599968 1.345149,113.491898 
	C4.295231,116.392593 6.971779,119.647903 9.489412,123.021797 
	C13.998544,129.064529 17.776737,135.819214 23.064020,141.062698 
	C27.389837,145.352692 33.451416,147.902344 38.784794,151.155823 
	C39.595295,151.650253 40.714397,151.627945 41.546940,152.098892 
	C46.720772,155.025604 51.853580,158.024826 57.000000,161.000000 
	C52.310745,161.000000 47.621487,161.000000 42.466118,161.000000 
z"/>
<path fill="#D6D6D6" opacity="1.000000" stroke="none" 
	d="
M84.468536,161.000000 
	C85.133591,160.334320 86.317711,159.025558 87.392357,159.110001 
	C93.238678,159.569397 98.423241,158.045227 103.609505,155.383957 
	C109.014992,152.610260 115.052811,151.048859 120.397957,148.181534 
	C133.139786,141.346359 144.138290,132.756210 149.861008,118.617149 
	C152.608719,111.828362 156.772797,105.612846 160.647720,99.068848 
	C161.000000,102.361290 161.000000,105.722572 160.649857,109.585503 
	C157.065475,115.007973 153.933701,120.000191 150.568985,124.830124 
	C147.007507,129.942520 143.990234,135.797623 139.376297,139.736435 
	C130.190948,147.577789 120.026901,154.216797 108.244301,157.894272 
	C106.964439,158.293747 106.072098,159.934830 105.000000,161.000000 
	C98.312355,161.000000 91.624710,161.000000 84.468536,161.000000 
z"/>
<path fill="#D3D3D3" opacity="1.000000" stroke="none" 
	d="
M105.458069,161.000000 
	C106.072098,159.934830 106.964439,158.293747 108.244301,157.894272 
	C120.026901,154.216797 130.190948,147.577789 139.376297,139.736435 
	C143.990234,135.797623 147.007507,129.942520 150.568985,124.830124 
	C153.933701,120.000191 157.065475,115.007973 160.649857,110.043571 
	C161.000000,113.361290 161.000000,116.722572 160.650208,120.585571 
	C159.327225,122.135513 158.173538,123.066948 157.408279,124.249710 
	C147.872162,138.988510 136.386078,151.494843 119.532707,158.060303 
	C118.178871,158.587708 117.169464,159.999298 116.000000,161.000000 
	C112.638710,161.000000 109.277428,161.000000 105.458069,161.000000 
z"/>
<path fill="#D6D6D6" opacity="1.000000" stroke="none" 
	d="
M57.468636,161.000000 
	C51.853580,158.024826 46.720772,155.025604 41.546940,152.098892 
	C40.714397,151.627945 39.595295,151.650253 38.784794,151.155823 
	C33.451416,147.902344 27.389837,145.352692 23.064020,141.062698 
	C17.776737,135.819214 13.998544,129.064529 9.489412,123.021797 
	C6.971779,119.647903 4.295231,116.392593 1.345149,113.041924 
	C1.000000,110.299988 1.000000,107.599968 1.000000,104.449982 
	C2.533938,105.760269 4.402688,107.329330 5.537930,109.317284 
	C8.719194,114.888054 10.899415,121.174202 14.777452,126.165916 
	C19.324398,132.018631 24.700520,137.554260 30.683764,141.894760 
	C42.515461,150.477982 56.318531,155.032196 70.394554,158.578125 
	C73.786964,159.432709 77.329422,159.691666 80.901443,160.612274 
	C73.312424,161.000000 65.624847,161.000000 57.468636,161.000000 
z"/>
<path fill="#CECECE" opacity="1.000000" stroke="none" 
	d="
M116.467606,161.000000 
	C117.169464,159.999298 118.178871,158.587708 119.532707,158.060303 
	C136.386078,151.494843 147.872162,138.988510 157.408279,124.249710 
	C158.173538,123.066948 159.327225,122.135513 160.650208,121.043640 
	C161.000000,125.024544 161.000000,129.049088 161.000000,133.536819 
	C159.073975,135.093842 156.788361,135.829666 155.282639,137.341980 
	C147.770844,144.886658 140.463898,152.635284 133.042435,160.656067 
	C127.645073,161.000000 122.290138,161.000000 116.467606,161.000000 
z"/>
<path fill="#D6D6D6" opacity="1.000000" stroke="none" 
	d="
M68.533142,1.000000 
	C67.300613,2.286073 65.785011,4.191832 63.872429,4.759079 
	C49.985020,8.877898 36.737118,14.458246 25.145473,23.147442 
	C20.776720,26.422295 17.285555,31.192312 14.251643,35.840332 
	C10.559866,41.496212 7.823718,47.770668 4.552256,53.710384 
	C3.881156,54.928841 2.671301,55.850563 1.354891,56.954529 
	C1.000000,54.299988 1.000000,51.599972 1.346101,48.407814 
	C6.415380,41.698997 11.306094,35.601273 15.823449,29.238474 
	C23.051329,19.057840 33.050812,13.033552 44.415997,8.483829 
	C47.742828,7.152027 50.163826,3.557456 53.000000,1.000001 
	C58.022091,1.000000 63.044186,1.000000 68.533142,1.000000 
z"/>
<path fill="#D3D3D3" opacity="1.000000" stroke="none" 
	d="
M161.000000,41.545891 
	C159.905640,41.136032 158.600632,40.440742 157.751526,39.380379 
	C152.711075,33.085827 148.583023,25.771334 142.592056,20.603910 
	C135.818665,14.761619 127.377647,10.863976 119.721558,6.026131 
	C117.728233,4.766556 115.957382,3.154905 114.042175,1.352481 
	C118.356903,1.000000 122.713799,1.000000 127.576401,1.344173 
	C128.540970,2.350203 128.898865,3.120071 129.473923,3.657636 
	C137.547256,11.204515 145.615616,18.757492 153.768188,26.218287 
	C156.039932,28.297256 158.581970,30.080883 161.000000,32.000000 
	C161.000000,35.030594 161.000000,38.061188 161.000000,41.545891 
z"/>
<path fill="#D3D3D3" opacity="1.000000" stroke="none" 
	d="
M52.539364,1.000001 
	C50.163826,3.557456 47.742828,7.152027 44.415997,8.483829 
	C33.050812,13.033552 23.051329,19.057840 15.823449,29.238474 
	C11.306094,35.601273 6.415380,41.698997 1.346101,47.957832 
	C1.000000,45.629444 1.000000,43.258884 1.346713,40.401623 
	C2.441173,39.313461 3.386201,38.847683 3.907124,38.090233 
	C11.942330,26.406647 20.853615,15.644978 33.184212,8.096157 
	C36.132557,6.291176 38.412590,3.394548 41.000000,1.000000 
	C44.692909,1.000000 48.385818,1.000000 52.539364,1.000001 
z"/>
<path fill="#CECECE" opacity="1.000000" stroke="none" 
	d="
M40.536816,1.000000 
	C38.412590,3.394548 36.132557,6.291176 33.184212,8.096157 
	C20.853615,15.644978 11.942330,26.406647 3.907124,38.090233 
	C3.386201,38.847683 2.441173,39.313461 1.346713,39.957458 
	C1.000000,36.969406 1.000000,33.938812 1.000000,30.454109 
	C4.350392,26.464079 7.620014,22.847002 11.071110,19.412264 
	C15.641014,14.864014 20.401035,10.506793 24.971277,5.958870 
	C26.180075,4.755978 26.992054,3.154320 27.993120,1.367882 
	C32.024544,1.000000 36.049088,1.000000 40.536816,1.000000 
z"/>
<path fill="#CECECE" opacity="1.000000" stroke="none" 
	d="
M161.000000,31.539364 
	C158.581970,30.080883 156.039932,28.297256 153.768188,26.218287 
	C145.615616,18.757492 137.547256,11.204515 129.473923,3.657636 
	C128.898865,3.120071 128.540970,2.350203 128.041046,1.344173 
	C132.689255,1.000000 137.378510,1.000000 142.574646,1.358295 
	C146.112640,10.694051 153.172821,15.722878 161.000000,20.000000 
	C161.000000,23.692909 161.000000,27.385818 161.000000,31.539364 
z"/>
<path fill="#C7C7C7" opacity="1.000000" stroke="none" 
	d="
M1.000000,140.468918 
	C5.321557,143.628784 9.712152,147.179306 13.942968,150.910965 
	C17.367214,153.931213 20.599165,157.169479 23.958206,160.655518 
	C16.410500,161.000000 8.821000,161.000000 1.000000,161.000000 
	C1.000000,154.314377 1.000000,147.626114 1.000000,140.468918 
z"/>
<path fill="#C7C7C7" opacity="1.000000" stroke="none" 
	d="
M161.000000,19.530624 
	C153.172821,15.722878 146.112640,10.694051 143.040771,1.358295 
	C148.927872,1.000000 154.855759,1.000000 161.000000,1.000000 
	C161.000000,7.018701 161.000000,13.039975 161.000000,19.530624 
z"/>
<path fill="#DDDDDD" opacity="1.000000" stroke="none" 
	d="
M146.325851,112.337753 
	C137.741226,132.293442 122.276733,143.653610 102.316208,149.278381 
	C86.955872,153.606873 71.331367,153.472519 56.321987,148.022293 
	C47.730431,144.902527 38.741844,141.190872 31.894419,135.417999 
	C24.770800,129.412262 17.097046,122.878235 13.938455,113.241684 
	C11.218245,104.942596 7.964725,96.760788 6.010134,88.282036 
	C3.221652,76.185989 6.434226,64.683884 11.195286,53.485043 
	C15.581064,43.168938 21.507479,33.820290 30.532169,27.285084 
	C37.265587,22.409098 44.949131,18.571424 52.668915,15.383852 
	C73.814613,6.652582 94.483498,8.907393 115.548828,17.388729 
	C128.016983,22.408663 137.211700,30.908663 144.564453,40.734253 
	C153.662506,52.892120 158.221817,67.242226 155.617538,83.367737 
	C153.977905,93.520279 151.698044,103.141586 146.325851,112.337753 
M136.919571,38.308933 
	C134.591812,36.018055 132.312714,33.675148 129.927887,31.445303 
	C119.625092,21.812056 107.382950,16.092293 93.507217,14.029160 
	C81.278496,12.210915 69.213615,12.001991 57.273762,16.654160 
	C41.845749,22.665430 27.839304,30.280048 18.746759,44.818756 
	C9.611625,59.425568 7.133804,75.205048 9.769878,92.112328 
	C11.788200,105.057449 18.157415,115.472122 26.516983,125.236717 
	C32.479557,132.201462 39.172390,137.657578 47.561443,141.332489 
	C57.032642,145.481476 66.474464,149.479752 77.102310,148.991516 
	C89.949791,148.401260 102.639809,146.941162 114.559914,141.637283 
	C115.756035,141.105072 116.984810,140.435242 117.906448,139.531509 
	C123.749481,133.802032 130.371841,128.605927 135.073975,122.042374 
	C140.599701,114.329208 146.117004,105.860741 148.549667,96.883003 
	C151.201157,87.097839 151.639114,76.216866 150.594330,66.065521 
	C149.547440,55.893726 144.742126,46.414043 136.919571,38.308933 
z"/>
<path fill="#E0E0E0" opacity="1.000000" stroke="none" 
	d="
M137.000000,39.000000 
	C144.742126,46.414043 149.547440,55.893726 150.594330,66.065521 
	C151.639114,76.216866 151.201157,87.097839 148.549667,96.883003 
	C146.117004,105.860741 140.599701,114.329208 135.073975,122.042374 
	C130.371841,128.605927 123.749481,133.802032 117.906448,139.531509 
	C116.984810,140.435242 115.756035,141.105072 114.559914,141.637283 
	C102.639809,146.941162 89.949791,148.401260 77.102310,148.991516 
	C66.474464,149.479752 57.032642,145.481476 47.561443,141.332489 
	C39.172390,137.657578 32.479557,132.201462 26.516983,125.236717 
	C18.157415,115.472122 11.788200,105.057449 9.769878,92.112328 
	C7.133804,75.205048 9.611625,59.425568 18.746759,44.818756 
	C27.839304,30.280048 41.845749,22.665430 57.273762,16.654160 
	C69.213615,12.001991 81.278496,12.210915 93.507217,14.029160 
	C107.382950,16.092293 119.625092,21.812056 129.927887,31.445303 
	C132.312714,33.675148 134.591812,36.018055 136.610535,38.613510 
	C130.326492,34.892284 124.187088,31.087355 118.413765,26.790558 
	C109.001495,19.785486 97.944664,17.311747 86.843994,16.189409 
	C63.058346,13.784554 43.631382,23.346731 27.321348,40.157833 
	C12.384839,55.553219 9.699084,74.266655 13.750526,94.148354 
	C16.787867,109.053543 25.548529,121.221092 37.363232,130.471100 
	C43.783936,135.498016 51.860092,138.436813 59.268364,142.160675 
	C61.623814,143.344666 64.264839,144.877243 66.721214,144.786667 
	C77.959732,144.372284 89.515503,144.870407 100.321083,142.332199 
	C114.159927,139.081451 126.730865,132.087082 134.230804,119.030083 
	C139.066940,110.610657 143.808792,101.991676 147.183746,92.936890 
	C148.997208,88.071442 147.858719,82.098091 148.010666,76.623497 
	C148.124039,72.538239 149.183685,68.132553 148.020966,64.436050 
	C146.046997,58.160507 142.612228,52.350155 139.877197,46.305477 
	C138.799622,43.923943 137.952209,41.438259 137.000000,39.000000 
z"/>
<path fill="#E2E2E2" opacity="1.000000" stroke="none" 
	d="
M136.650757,38.959045 
	C137.952209,41.438259 138.799622,43.923943 139.877197,46.305477 
	C142.612228,52.350155 146.046997,58.160507 148.020966,64.436050 
	C149.183685,68.132553 148.124039,72.538239 148.010666,76.623497 
	C147.858719,82.098091 148.997208,88.071442 147.183746,92.936890 
	C143.808792,101.991676 139.066940,110.610657 134.230804,119.030083 
	C126.730865,132.087082 114.159927,139.081451 100.321083,142.332199 
	C89.515503,144.870407 77.959732,144.372284 66.721214,144.786667 
	C64.264839,144.877243 61.623814,143.344666 59.268364,142.160675 
	C51.860092,138.436813 43.783936,135.498016 37.363232,130.471100 
	C25.548529,121.221092 16.787867,109.053543 13.750526,94.148354 
	C9.699084,74.266655 12.384839,55.553219 27.321348,40.157833 
	C43.631382,23.346731 63.058346,13.784554 86.843994,16.189409 
	C97.944664,17.311747 109.001495,19.785486 118.413765,26.790558 
	C124.187088,31.087355 130.326492,34.892284 136.650757,38.959045 
M143.264282,69.645676 
	C145.688766,64.491173 141.595261,60.745102 140.171860,56.536472 
	C137.614624,48.975380 133.899338,42.351112 127.095596,37.092781 
	C119.008446,30.842550 110.122734,26.862455 100.787392,23.352118 
	C87.301910,18.281210 73.709122,18.719408 60.429573,23.458853 
	C53.647968,25.879194 47.490074,30.031826 41.018345,33.339008 
	C28.788164,39.588875 21.636574,50.039860 16.729654,62.411606 
	C13.427312,70.737747 14.060426,79.326599 15.074959,87.882401 
	C15.535148,91.763290 16.021791,95.985428 17.872236,99.280029 
	C21.000566,104.849815 25.716366,109.523926 28.881575,115.077919 
	C35.494373,126.681419 46.664932,132.394867 57.962158,137.230423 
	C73.280113,143.786972 89.120529,142.491791 104.481247,136.292847 
	C124.001373,128.415329 137.205429,114.490883 144.300827,94.624214 
	C147.275360,86.295715 145.734833,78.397018 143.264282,69.645676 
z"/>
<path fill="#E6E6E6" opacity="1.000000" stroke="none" 
	d="
M143.207764,70.044708 
	C145.734833,78.397018 147.275360,86.295715 144.300827,94.624214 
	C137.205429,114.490883 124.001373,128.415329 104.481247,136.292847 
	C89.120529,142.491791 73.280113,143.786972 57.962158,137.230423 
	C46.664932,132.394867 35.494373,126.681419 28.881575,115.077919 
	C25.716366,109.523926 21.000566,104.849815 17.872236,99.280029 
	C16.021791,95.985428 15.535148,91.763290 15.074959,87.882401 
	C14.060426,79.326599 13.427312,70.737747 16.729654,62.411606 
	C21.636574,50.039860 28.788164,39.588875 41.018345,33.339008 
	C47.490074,30.031826 53.647968,25.879194 60.429573,23.458853 
	C73.709122,18.719408 87.301910,18.281210 100.787392,23.352118 
	C110.122734,26.862455 119.008446,30.842550 127.095596,37.092781 
	C133.899338,42.351112 137.614624,48.975380 140.171860,56.536472 
	C141.595261,60.745102 145.688766,64.491173 143.207764,70.044708 
M139.873901,82.038345 
	C140.247055,81.026268 140.620209,80.014191 140.988617,78.282143 
	C140.750214,76.595688 140.511810,74.909233 140.273407,73.222771 
	C139.853378,73.252708 139.433350,73.282639 139.013321,73.312576 
	C139.013321,75.209755 139.013321,77.106934 138.952347,79.708488 
	C138.899933,80.413574 138.847519,81.118668 138.548233,82.074600 
	C138.765121,82.123047 138.981995,82.171486 139.873901,82.038345 
M135.921295,65.300369 
	C135.129562,64.749504 134.337830,64.198639 133.546097,63.647770 
	C133.754959,64.473961 133.963821,65.300148 134.221054,66.686951 
	C134.558609,66.976997 134.896164,67.267036 135.233719,67.557076 
	C135.491364,67.026131 135.749008,66.495193 135.921295,65.300369 
M135.737625,87.871826 
	C136.732834,86.832832 137.728027,85.793839 138.723236,84.754845 
	C138.273941,84.414261 137.824661,84.073669 137.375366,83.733086 
	C136.507599,85.059357 135.639816,86.385628 134.367294,87.782288 
	C134.367294,87.782288 133.959641,87.718773 133.632889,87.179695 
	C133.407562,86.169418 133.182220,85.159134 133.417603,83.666527 
	C132.959656,82.780777 132.501709,81.895035 131.733505,80.244896 
	C132.003647,79.591194 132.228973,78.914360 132.552383,78.288170 
	C133.490799,76.471184 135.545029,74.358124 135.133331,72.957321 
	C134.706924,71.506523 131.980743,70.048302 130.124542,69.847069 
	C126.550354,69.459579 122.880341,69.956032 118.582191,70.071800 
	C117.786354,70.439034 116.990517,70.806259 116.015038,71.018143 
	C116.015038,71.018143 115.834633,70.863678 116.005463,70.172325 
	C116.689911,68.458435 117.374359,66.744553 118.732880,65.116211 
	C120.198311,64.901459 122.889572,69.436775 123.800896,64.015793 
	C128.138367,64.010475 128.138367,64.010475 127.992874,61.257271 
	C122.585762,55.128395 117.883675,48.118492 111.597519,43.088100 
	C103.274841,36.428028 92.690361,34.432301 82.146370,34.127483 
	C76.602852,33.967228 70.639969,34.139145 65.524796,35.985222 
	C49.990078,41.591759 38.320606,52.001205 30.267511,66.976479 
	C29.659973,66.407120 28.444582,65.687691 28.542168,65.292412 
	C29.249876,62.425838 29.459188,58.945705 31.253103,56.928947 
	C36.836384,50.652092 42.258545,43.705181 49.179718,39.249615 
	C66.041695,28.394579 84.498489,26.435772 103.373283,34.032455 
	C115.273964,38.822216 125.816193,45.440166 130.851791,58.207745 
	C131.222046,59.146523 132.216995,59.838921 132.921524,60.645859 
	C133.339752,60.470592 133.757980,60.295322 134.176193,60.120052 
	C133.670334,58.219486 133.568512,56.064919 132.568893,54.474754 
	C130.842972,51.729259 128.315323,49.491913 126.553810,46.763870 
	C120.458740,37.324493 110.136864,34.500244 100.803596,30.247267 
	C97.291428,28.646841 93.267021,27.823376 89.395988,27.425528 
	C79.489105,26.407345 69.719673,26.919142 60.320129,30.919537 
	C47.212128,36.498234 34.796600,43.055561 28.951057,56.979473 
	C27.433861,60.593388 22.421885,63.966259 26.002163,69.812149 
	C25.945351,70.875908 25.888536,71.939674 25.026777,73.048409 
	C24.351120,74.303619 23.190081,75.522461 23.092760,76.821014 
	C22.823843,80.409195 22.992334,84.030685 23.000401,87.638985 
	C23.014786,94.073318 24.617035,96.145248 31.010914,98.762344 
	C34.539883,104.144089 37.772820,109.757675 41.726864,114.806519 
	C43.609901,117.210953 46.782047,118.678825 49.517815,120.325821 
	C53.946358,122.991913 58.496571,125.455902 63.147114,128.728516 
	C66.097458,129.486465 69.047806,130.244400 72.906723,131.002426 
	C75.938522,131.002426 78.970322,131.002441 82.867638,131.002426 
	C85.246574,130.336777 87.625504,129.671143 90.803955,129.004410 
	C91.869987,129.003754 92.936028,129.003098 94.788322,129.000275 
	C96.860336,128.001801 98.932350,127.003326 101.786263,126.002220 
	C107.309052,122.714165 113.645172,120.264786 118.134537,115.911087 
	C122.990051,111.202293 126.121475,104.715668 130.577682,98.933716 
	C130.720688,98.288925 130.863693,97.644142 131.140930,96.300270 
	C134.987061,92.912422 134.960342,92.146713 131.321854,89.435410 
	C132.166046,89.292610 133.010223,89.149803 134.374985,88.885628 
	C134.640884,88.656334 134.906799,88.427032 135.737625,87.871826 
M138.181152,68.734917 
	C138.030304,68.673706 137.879364,68.565254 137.728607,68.565483 
	C137.595734,68.565681 137.341446,68.731773 137.347717,68.748878 
	C137.650620,69.576500 137.976013,70.395897 138.298889,71.216209 
	C138.526779,71.119499 138.754654,71.022789 138.982529,70.926079 
	C138.856415,70.333084 138.730286,69.740082 138.181152,68.734917 
M126.417343,68.172279 
	C126.794266,68.177193 127.171196,68.182098 127.548119,68.187019 
	C127.549072,68.032234 127.560783,67.743042 127.549431,67.742134 
	C127.176216,67.712280 126.800781,67.710083 126.417343,68.172279 
z"/>
<path fill="#F7F7F7" opacity="1.000000" stroke="none" 
	d="
M118.058800,65.030663 
	C117.374359,66.744553 116.689911,68.458435 115.637848,70.706284 
	C114.488579,72.803253 113.706932,74.366272 112.925278,75.929291 
	C113.376862,76.093063 113.828445,76.256836 114.280029,76.420609 
	C114.918243,74.671570 115.556458,72.922531 116.194679,71.173492 
	C116.990517,70.806259 117.786354,70.439034 118.967239,70.413361 
	C122.169220,71.296951 124.989243,71.823608 127.801895,72.387016 
	C129.385834,72.704300 130.957642,73.082184 132.534897,73.432770 
	C132.421066,73.772690 132.307220,74.112610 132.193375,74.452530 
	C129.739517,74.963455 127.285660,75.474380 124.608505,75.991409 
	C124.385208,75.997505 123.939354,76.025818 123.599983,75.902946 
	C120.553543,74.605774 119.184555,75.269897 119.381294,78.441574 
	C119.493416,80.248947 119.347160,82.072357 118.958466,83.898132 
	C117.558777,83.675880 116.517868,83.444031 114.457047,82.985016 
	C116.017082,85.220673 117.003212,86.633865 117.993874,88.449112 
	C118.247841,90.617706 118.497269,92.384239 118.680008,93.678406 
	C116.537895,94.920868 113.827545,95.530243 113.023369,97.109985 
	C105.883736,111.135208 86.430939,115.772736 74.329895,113.518921 
	C63.757183,111.549736 54.980106,106.436287 49.214329,96.881805 
	C47.581326,94.175758 45.518158,91.349083 41.637764,95.001526 
	C40.513943,94.994812 39.764896,94.992615 39.021469,94.658707 
	C39.035782,93.884705 39.044472,93.442436 39.357330,92.853027 
	C42.108574,90.197746 44.555641,87.689613 47.376148,85.107460 
	C48.753471,84.969727 49.757359,84.906013 51.255962,84.810905 
	C48.861588,82.763657 47.040077,81.206230 44.498669,79.033272 
	C49.452122,79.379021 52.250069,78.082054 51.990856,73.474693 
	C51.728050,68.803482 48.458069,68.657608 44.934715,68.801353 
	C43.297070,68.868156 41.649010,68.679764 40.043503,68.457146 
	C40.081329,68.307236 40.198257,68.020981 40.517242,67.946625 
	C43.246361,65.403328 46.056606,63.210407 47.987720,60.411030 
	C52.786140,53.455135 60.096809,49.819939 67.318207,47.021778 
	C81.502678,41.525551 99.656509,45.747009 111.275307,58.692989 
	C113.334213,60.987076 115.787582,62.927128 118.058800,65.030663 
M99.894150,74.947502 
	C102.219994,73.209587 104.545837,71.471672 107.256813,69.445984 
	C101.620125,67.919014 98.437370,70.616371 95.701630,74.475075 
	C91.950928,71.354118 88.950409,66.894859 82.859627,69.443077 
	C85.644066,71.845329 88.299210,74.136032 91.152786,76.597939 
	C87.305908,79.376999 83.757111,81.940727 80.108772,84.576363 
	C87.862061,87.283516 90.989571,79.119736 96.704742,77.616455 
	C96.579071,79.130440 96.010483,80.541245 96.483765,81.179581 
	C99.143669,84.767090 102.659203,86.093636 107.298729,84.423553 
	C103.941818,81.533524 100.798775,78.827621 98.704529,75.866486 
	C99.040230,75.737015 99.375931,75.607544 99.894150,74.947502 
M75.939041,81.790924 
	C71.940308,81.789177 67.934708,81.915924 63.947289,81.702675 
	C62.837475,81.643318 61.781490,80.577507 60.700809,79.973427 
	C60.930717,79.431282 61.160622,78.889145 61.390526,78.347000 
	C66.484528,78.347000 71.578529,78.347000 76.859047,78.347000 
	C76.921806,77.317421 77.024406,76.134148 76.989876,76.130135 
	C71.734848,75.519089 66.469917,74.993217 61.073509,74.450462 
	C61.073509,74.075500 61.030849,73.186111 61.079559,73.181076 
	C66.835472,72.586411 72.598160,72.057312 78.354431,71.525261 
	C77.618408,68.462669 70.334480,67.683365 56.280792,69.229073 
	C56.280792,74.426888 56.280792,79.631927 56.280792,84.995377 
	C62.083153,84.995377 67.578590,85.196655 73.039223,84.849915 
	C74.358688,84.766136 75.563133,82.870888 75.939041,81.790924 
M107.680656,94.382973 
	C108.565910,94.164703 109.451172,93.946434 110.336426,93.728157 
	C110.147957,93.332527 109.959488,92.936897 109.771019,92.541275 
	C109.088448,92.961212 108.405884,93.381157 107.680656,94.382973 
M114.383385,78.421799 
	C114.319214,79.513725 114.255043,80.605644 114.190872,81.697571 
	C114.640396,81.640884 115.089920,81.584198 115.539444,81.527512 
	C115.294456,80.642815 115.049461,79.758125 114.383385,78.421799 
M104.540520,93.283722 
	C104.281166,93.011436 104.024178,92.736610 103.749146,92.481209 
	C103.742126,92.474693 103.536972,92.681557 103.424225,92.788902 
	C103.683830,93.061150 103.943428,93.333397 104.540520,93.283722 
z"/>
<path fill="#EEEEEE" opacity="1.000000" stroke="none" 
	d="
M39.053158,93.000160 
	C39.044472,93.442436 39.035782,93.884705 38.876610,94.978340 
	C38.974636,97.123802 38.720360,99.040581 39.559204,100.038406 
	C43.079441,104.225800 46.470707,108.731956 50.753689,112.022041 
	C58.586720,118.039200 66.438591,124.703255 77.556778,123.002571 
	C80.008095,122.627609 82.462296,122.189461 84.931389,122.026840 
	C96.077438,121.292732 105.866821,117.560417 113.947433,109.599037 
	C120.139633,103.498215 122.987770,94.531609 130.919525,89.954483 
	C134.960342,92.146713 134.987061,92.912422 130.834366,96.823822 
	C130.353500,97.899734 130.179184,98.452103 130.004883,99.004471 
	C126.121475,104.715668 122.990051,111.202293 118.134537,115.911087 
	C113.645172,120.264786 107.309052,122.714165 101.014847,126.050293 
	C98.162971,127.066399 96.082520,128.034424 94.002060,129.002441 
	C92.936028,129.003098 91.869987,129.003754 89.970726,129.003052 
	C86.759041,129.668610 84.380577,130.335526 82.002121,131.002441 
	C78.970322,131.002441 75.938522,131.002426 72.365593,130.630188 
	C68.881447,129.507034 65.938431,128.756119 62.995415,128.005219 
	C58.496571,125.455902 53.946358,122.991913 49.517815,120.325821 
	C46.782047,118.678825 43.609901,117.210953 41.726864,114.806519 
	C37.772820,109.757675 34.539883,104.144089 30.958605,98.026634 
	C27.350977,93.980072 26.339445,89.849205 27.435368,85.105858 
	C29.977692,85.288696 31.311150,84.966301 31.084080,82.224968 
	C30.815323,78.980362 31.020939,75.696465 31.020939,72.378456 
	C33.032707,72.378456 34.505074,72.378456 35.976799,72.707108 
	C35.977184,73.911789 35.978210,74.787827 35.702766,75.747559 
	C35.202950,76.309235 34.682060,77.107613 34.800484,77.217598 
	C36.894775,79.162552 39.066921,81.023689 40.923481,83.097610 
	C38.878437,86.330353 34.009445,88.862900 39.053158,93.000160 
z"/>
<path fill="#F2F2F2" opacity="1.000000" stroke="none" 
	d="
M131.120697,89.694946 
	C122.987770,94.531609 120.139633,103.498215 113.947433,109.599037 
	C105.866821,117.560417 96.077438,121.292732 84.931389,122.026840 
	C82.462296,122.189461 80.008095,122.627609 77.556778,123.002571 
	C66.438591,124.703255 58.586720,118.039200 50.753689,112.022041 
	C46.470707,108.731956 43.079441,104.225800 39.559204,100.038406 
	C38.720360,99.040581 38.974636,97.123802 38.870987,95.310059 
	C39.764896,94.992615 40.513943,94.994812 41.672619,95.344833 
	C46.174492,100.003098 49.946892,104.692261 54.460339,108.503944 
	C58.061420,111.545128 62.331112,114.106819 66.714279,115.849373 
	C78.411186,120.499519 89.902443,118.080742 100.776489,112.980751 
	C109.721893,108.785309 116.663536,102.111580 121.265587,92.797066 
	C124.001045,89.855522 123.708862,86.744370 122.721176,83.294785 
	C122.693375,82.693367 122.761658,82.345345 123.126480,81.789902 
	C123.660454,81.169289 123.897896,80.756088 124.458801,80.535828 
	C127.200012,81.824234 129.617752,82.919701 132.263733,84.063065 
	C132.491989,84.110977 132.956879,84.148857 132.956879,84.148857 
	C133.182220,85.159134 133.407562,86.169418 133.755020,87.771606 
	C133.869568,88.578011 133.862000,88.792503 133.854416,89.006996 
	C133.010223,89.149803 132.166046,89.292610 131.120697,89.694946 
M126.399345,90.526947 
	C126.168694,90.468605 125.938034,90.410263 125.707382,90.351921 
	C125.855995,90.496712 126.004608,90.641510 126.399345,90.526947 
M125.574310,92.515060 
	C125.574310,92.515060 125.478531,92.569099 125.574310,92.515060 
z"/>
<path fill="#F5F5F5" opacity="1.000000" stroke="none" 
	d="
M118.395844,65.073441 
	C115.787582,62.927128 113.334213,60.987076 111.275307,58.692989 
	C99.656509,45.747009 81.502678,41.525551 67.318207,47.021778 
	C60.096809,49.819939 52.786140,53.455135 47.987720,60.411030 
	C46.056606,63.210407 43.246361,65.403328 40.450146,67.564560 
	C42.470497,63.243748 44.221439,58.590088 47.402931,55.334377 
	C58.109440,44.378124 71.060013,38.345078 86.716667,41.120506 
	C97.242378,42.986389 107.166428,46.578697 114.560020,55.034550 
	C117.263405,58.126335 120.187271,61.025337 123.010551,64.012291 
	C122.889572,69.436775 120.198311,64.901459 118.395844,65.073441 
z"/>
<path fill="#F2F2F2" opacity="1.000000" stroke="none" 
	d="
M123.405724,64.014038 
	C120.187271,61.025337 117.263405,58.126335 114.560020,55.034550 
	C107.166428,46.578697 97.242378,42.986389 86.716667,41.120506 
	C71.060013,38.345078 58.109440,44.378124 47.402931,55.334377 
	C44.221439,58.590088 42.470497,63.243748 40.131161,67.638916 
	C40.198257,68.020981 40.081329,68.307236 39.614845,68.557999 
	C37.100677,68.746132 35.053001,68.683502 33.071159,68.301689 
	C34.442936,66.287682 35.990997,64.726768 37.014748,62.875851 
	C42.808331,52.401218 52.390926,46.038818 62.351402,40.533089 
	C70.030670,36.288315 78.810211,36.877411 87.435501,37.922634 
	C100.552567,39.512177 111.273972,44.965454 119.512802,55.546333 
	C121.599144,58.225765 123.351761,62.308407 128.018555,61.980476 
	C128.138367,64.010475 128.138367,64.010475 123.405724,64.014038 
z"/>
<path fill="#EEEEEE" opacity="1.000000" stroke="none" 
	d="
M128.005707,61.618874 
	C123.351761,62.308407 121.599144,58.225765 119.512802,55.546333 
	C111.273972,44.965454 100.552567,39.512177 87.435501,37.922634 
	C78.810211,36.877411 70.030670,36.288315 62.351402,40.533089 
	C52.390926,46.038818 42.808331,52.401218 37.014748,62.875851 
	C35.990997,64.726768 34.442936,66.287682 32.742752,68.399139 
	C31.900528,68.753319 31.452553,68.690865 31.006947,68.356339 
	C31.003504,67.721497 30.997690,67.358719 30.991879,66.995941 
	C38.320606,52.001205 49.990078,41.591759 65.524796,35.985222 
	C70.639969,34.139145 76.602852,33.967228 82.146370,34.127483 
	C92.690361,34.432301 103.274841,36.428028 111.597519,43.088100 
	C117.883675,48.118492 122.585762,55.128395 128.005707,61.618874 
z"/>
<path fill="#EAEAEA" opacity="1.000000" stroke="none" 
	d="
M30.629696,66.986206 
	C30.997690,67.358719 31.003504,67.721497 30.600067,68.449646 
	C28.804527,68.880409 27.418236,68.945793 26.031944,69.011169 
	C22.421885,63.966259 27.433861,60.593388 28.951057,56.979473 
	C34.796600,43.055561 47.212128,36.498234 60.320129,30.919537 
	C69.719673,26.919142 79.489105,26.407345 89.395988,27.425528 
	C93.267021,27.823376 97.291428,28.646841 100.803596,30.247267 
	C110.136864,34.500244 120.458740,37.324493 126.553810,46.763870 
	C128.315323,49.491913 130.842972,51.729259 132.568893,54.474754 
	C133.568512,56.064919 133.670334,58.219486 134.176193,60.120052 
	C133.757980,60.295322 133.339752,60.470592 132.921524,60.645859 
	C132.216995,59.838921 131.222046,59.146523 130.851791,58.207745 
	C125.816193,45.440166 115.273964,38.822216 103.373283,34.032455 
	C84.498489,26.435772 66.041695,28.394579 49.179718,39.249615 
	C42.258545,43.705181 36.836384,50.652092 31.253103,56.928947 
	C29.459188,58.945705 29.249876,62.425838 28.542168,65.292412 
	C28.444582,65.687691 29.659973,66.407120 30.629696,66.986206 
z"/>
<path fill="#060606" opacity="1.000000" stroke="none" 
	d="
M26.017054,69.411659 
	C27.418236,68.945793 28.804527,68.880409 30.597698,68.721718 
	C31.452553,68.690865 31.900528,68.753319 32.676910,68.718323 
	C35.053001,68.683502 37.100677,68.746132 39.577015,68.707909 
	C41.649010,68.679764 43.297070,68.868156 44.934715,68.801353 
	C48.458069,68.657608 51.728050,68.803482 51.990856,73.474693 
	C52.250069,78.082054 49.452122,79.379021 44.498669,79.033272 
	C47.040077,81.206230 48.861588,82.763657 51.255962,84.810905 
	C49.757359,84.906013 48.753471,84.969727 47.021545,85.029907 
	C44.603085,84.318565 42.912663,83.610748 41.222244,82.902931 
	C39.066921,81.023689 36.894775,79.162552 34.800484,77.217598 
	C34.682060,77.107613 35.202950,76.309235 36.145344,75.844261 
	C40.251583,75.300552 44.239704,77.358078 47.058949,74.330666 
	C47.018784,73.679924 46.978615,73.029190 46.938450,72.378456 
	C43.284779,72.378456 39.631111,72.378456 35.977444,72.378456 
	C34.505074,72.378456 33.032707,72.378456 31.020939,72.378456 
	C31.020939,75.696465 30.815323,78.980362 31.084080,82.224968 
	C31.311150,84.966301 29.977692,85.288696 27.052034,84.885437 
	C26.100693,80.826408 25.966208,76.914917 25.831724,73.003433 
	C25.888536,71.939674 25.945351,70.875908 26.017054,69.411659 
z"/>
<path fill="#060606" opacity="1.000000" stroke="none" 
	d="
M132.035492,84.015167 
	C129.617752,82.919701 127.200012,81.824234 124.228645,80.218231 
	C123.393326,80.470894 123.111633,81.234108 122.829941,81.997314 
	C122.761658,82.345345 122.693375,82.693367 122.390427,83.443779 
	C121.209595,83.860283 120.263420,83.874413 119.317253,83.888535 
	C119.347160,82.072357 119.493416,80.248947 119.381294,78.441574 
	C119.184555,75.269897 120.553543,74.605774 123.665771,76.179359 
	C124.324547,76.380867 124.578171,76.183098 124.831802,75.985321 
	C127.285660,75.474380 129.739517,74.963455 132.193375,74.452530 
	C132.307220,74.112610 132.421066,73.772690 132.534897,73.432770 
	C130.957642,73.082184 129.385834,72.704300 127.801895,72.387016 
	C124.989243,71.823608 122.169220,71.296951 119.301178,70.420425 
	C122.880341,69.956032 126.550354,69.459579 130.124542,69.847069 
	C131.980743,70.048302 134.706924,71.506523 135.133331,72.957321 
	C135.545029,74.358124 133.490799,76.471184 132.552383,78.288170 
	C132.228973,78.914360 132.003647,79.591194 131.554352,80.649300 
	C131.595306,82.040855 131.815399,83.028008 132.035492,84.015167 
z"/>
<path fill="#EAEAEA" opacity="1.000000" stroke="none" 
	d="
M25.429251,73.025925 
	C25.966208,76.914917 26.100693,80.826408 26.618507,84.958313 
	C26.339445,89.849205 27.350977,93.980072 30.950798,97.647644 
	C24.617035,96.145248 23.014786,94.073318 23.000401,87.638985 
	C22.992334,84.030685 22.823843,80.409195 23.092760,76.821014 
	C23.190081,75.522461 24.351120,74.303619 25.429251,73.025925 
z"/>
<path fill="#EAEAEA" opacity="1.000000" stroke="none" 
	d="
M63.071266,128.366867 
	C65.938431,128.756119 68.881447,129.507034 71.911308,130.630142 
	C69.047806,130.244400 66.097458,129.486465 63.071266,128.366867 
z"/>
<path fill="#EAEAEA" opacity="1.000000" stroke="none" 
	d="
M82.434875,131.002441 
	C84.380577,130.335526 86.759041,129.668610 89.570969,129.003601 
	C87.625504,129.671143 85.246574,130.336777 82.434875,131.002441 
z"/>
<path fill="#EAEAEA" opacity="1.000000" stroke="none" 
	d="
M94.395187,129.001358 
	C96.082520,128.034424 98.162971,127.066399 100.623901,126.051613 
	C98.932350,127.003326 96.860336,128.001801 94.395187,129.001358 
z"/>
<path fill="#D3D3D3" opacity="1.000000" stroke="none" 
	d="
M139.013321,79.004112 
	C139.013321,77.106934 139.013321,75.209755 139.013321,73.312576 
	C139.433350,73.282639 139.853378,73.252708 140.273407,73.222771 
	C140.511810,74.909233 140.750214,76.595688 140.660980,78.639404 
	C139.893341,78.999153 139.453339,79.001633 139.013321,79.004112 
z"/>
<path fill="#CECECE" opacity="1.000000" stroke="none" 
	d="
M134.772034,87.711899 
	C135.639816,86.385628 136.507599,85.059357 137.375366,83.733086 
	C137.824661,84.073669 138.273941,84.414261 138.723236,84.754845 
	C137.728027,85.793839 136.732834,86.832832 135.352081,87.914703 
	C134.966537,87.957581 134.772034,87.711899 134.772034,87.711899 
z"/>
<path fill="#EAEAEA" opacity="1.000000" stroke="none" 
	d="
M134.172668,66.126335 
	C133.963821,65.300148 133.754959,64.473961 133.546097,63.647770 
	C134.337830,64.198639 135.129562,64.749504 135.655563,65.638382 
	C134.984116,66.026382 134.578384,66.076355 134.172668,66.126335 
z"/>
<path fill="#CECECE" opacity="1.000000" stroke="none" 
	d="
M132.263733,84.063072 
	C131.815399,83.028008 131.595306,82.040855 131.709473,81.031494 
	C132.501709,81.895035 132.959656,82.780777 133.187241,83.907692 
	C132.956879,84.148857 132.491989,84.110977 132.263733,84.063072 
z"/>
<path fill="#CECECE" opacity="1.000000" stroke="none" 
	d="
M138.982834,79.356300 
	C139.453339,79.001633 139.893341,78.999153 140.663361,78.999390 
	C140.620209,80.014191 140.247055,81.026268 139.437317,82.028183 
	C139.000732,82.018013 138.795090,81.823753 138.795090,81.823753 
	C138.847519,81.118668 138.899933,80.413574 138.982834,79.356300 
z"/>
<path fill="#CECECE" opacity="1.000000" stroke="none" 
	d="
M138.392654,68.941002 
	C138.730286,69.740082 138.856415,70.333084 138.982529,70.926079 
	C138.754654,71.022789 138.526779,71.119499 138.298889,71.216209 
	C137.976013,70.395897 137.650620,69.576500 137.347717,68.748878 
	C137.341446,68.731773 137.595734,68.565681 137.728607,68.565483 
	C137.879364,68.565254 138.030304,68.673706 138.392654,68.941002 
z"/>
<path fill="#EAEAEA" opacity="1.000000" stroke="none" 
	d="
M130.291290,98.969093 
	C130.179184,98.452103 130.353500,97.899734 130.767242,97.173363 
	C130.863693,97.644142 130.720688,98.288925 130.291290,98.969093 
z"/>
<path fill="#F2F2F2" opacity="1.000000" stroke="none" 
	d="
M126.421509,67.938034 
	C126.800781,67.710083 127.176216,67.712280 127.549431,67.742134 
	C127.560783,67.743042 127.549072,68.032234 127.548119,68.187012 
	C127.171196,68.182098 126.794266,68.177193 126.421509,67.938034 
z"/>
<path fill="#CECECE" opacity="1.000000" stroke="none" 
	d="
M134.196869,66.406647 
	C134.578384,66.076355 134.984116,66.026382 135.698242,65.970322 
	C135.749008,66.495193 135.491364,67.026131 135.233719,67.557076 
	C134.896164,67.267036 134.558609,66.976997 134.196869,66.406647 
z"/>
<path fill="#CECECE" opacity="1.000000" stroke="none" 
	d="
M134.114700,88.946312 
	C133.862000,88.792503 133.869568,88.578011 133.918396,88.041153 
	C133.959641,87.718773 134.367294,87.782288 134.569672,87.747093 
	C134.772034,87.711899 134.966537,87.957581 135.069611,88.077660 
	C134.906799,88.427032 134.640884,88.656334 134.114700,88.946312 
z"/>
<path fill="#CECECE" opacity="1.000000" stroke="none" 
	d="
M139.099808,82.118973 
	C138.981995,82.171486 138.765121,82.123047 138.671661,81.949173 
	C138.795090,81.823753 139.000732,82.018013 139.099808,82.118973 
z"/>
<path fill="#F5F5F5" opacity="1.000000" stroke="none" 
	d="
M120.994827,93.018646 
	C116.663536,102.111580 109.721893,108.785309 100.776489,112.980751 
	C89.902443,118.080742 78.411186,120.499519 66.714279,115.849373 
	C62.331112,114.106819 58.061420,111.545128 54.460339,108.503944 
	C49.946892,104.692261 46.174492,100.003098 42.047386,95.349365 
	C45.518158,91.349083 47.581326,94.175758 49.214329,96.881805 
	C54.980106,106.436287 63.757183,111.549736 74.329895,113.518921 
	C86.430939,115.772736 105.883736,111.135208 113.023369,97.109985 
	C113.827545,95.530243 116.537895,94.920868 118.680008,93.678406 
	C118.497269,92.384239 118.247841,90.617706 118.354744,88.497086 
	C119.472328,89.768211 120.233582,91.393425 120.994827,93.018646 
z"/>
<path fill="#060606" opacity="1.000000" stroke="none" 
	d="
M76.379753,81.799782 
	C75.563133,82.870888 74.358688,84.766136 73.039223,84.849915 
	C67.578590,85.196655 62.083153,84.995377 56.280792,84.995377 
	C56.280792,79.631927 56.280792,74.426888 56.280792,69.229073 
	C70.334480,67.683365 77.618408,68.462669 78.354431,71.525261 
	C72.598160,72.057312 66.835472,72.586411 61.079559,73.181076 
	C61.030849,73.186111 61.073509,74.075500 61.073509,74.450462 
	C66.469917,74.993217 71.734848,75.519089 76.989876,76.130135 
	C77.024406,76.134148 76.921806,77.317421 76.859047,78.347000 
	C71.578529,78.347000 66.484528,78.347000 61.390526,78.347000 
	C61.160622,78.889145 60.930717,79.431282 60.700809,79.973427 
	C61.781490,80.577507 62.837475,81.643318 63.947289,81.702675 
	C67.934708,81.915924 71.940308,81.789177 76.379753,81.799782 
z"/>
<path fill="#060606" opacity="1.000000" stroke="none" 
	d="
M97.655724,76.121719 
	C100.798775,78.827621 103.941818,81.533524 107.298729,84.423553 
	C102.659203,86.093636 99.143669,84.767090 96.483765,81.179581 
	C96.010483,80.541245 96.579071,79.130440 96.704742,77.616455 
	C90.989571,79.119736 87.862061,87.283516 80.108772,84.576363 
	C83.757111,81.940727 87.305908,79.376999 91.152786,76.597939 
	C88.299210,74.136032 85.644066,71.845329 82.859627,69.443077 
	C88.950409,66.894859 91.950928,71.354118 95.701630,74.475075 
	C98.437370,70.616371 101.620125,67.919014 107.256813,69.445984 
	C104.545837,71.471672 102.219994,73.209587 99.486046,75.027092 
	C98.094215,74.588593 97.110489,74.070503 96.126755,73.552422 
	C95.766609,73.975075 95.406456,74.397728 95.046303,74.820381 
	C95.916115,75.254158 96.785919,75.687935 97.655724,76.121719 
z"/>
<path fill="#F5F5F5" opacity="1.000000" stroke="none" 
	d="
M40.923481,83.097610 
	C42.912663,83.610748 44.603085,84.318565 46.648109,85.103928 
	C44.555641,87.689613 42.108574,90.197746 39.357330,92.853027 
	C34.009445,88.862900 38.878437,86.330353 40.923481,83.097610 
z"/>
<path fill="#E2E2E2" opacity="1.000000" stroke="none" 
	d="
M121.265594,92.797066 
	C120.233582,91.393425 119.472328,89.768211 118.350204,88.095032 
	C117.003212,86.633865 116.017082,85.220673 114.457047,82.985016 
	C116.517868,83.444031 117.558777,83.675880 118.958466,83.898132 
	C120.263420,83.874413 121.209595,83.860283 122.486511,83.697166 
	C123.708862,86.744370 124.001045,89.855522 121.265594,92.797066 
z"/>
<path fill="#E6E6E6" opacity="1.000000" stroke="none" 
	d="
M116.104858,71.095818 
	C115.556458,72.922531 114.918243,74.671570 114.280029,76.420609 
	C113.828445,76.256836 113.376862,76.093063 112.925278,75.929291 
	C113.706932,74.366272 114.488579,72.803253 115.552429,71.051956 
	C115.834633,70.863678 116.015038,71.018143 116.104858,71.095818 
z"/>
<path fill="#F5F5F5" opacity="1.000000" stroke="none" 
	d="
M107.701981,94.092041 
	C108.405884,93.381157 109.088448,92.961212 109.771019,92.541275 
	C109.959488,92.936897 110.147957,93.332527 110.336426,93.728165 
	C109.451172,93.946434 108.565910,94.164703 107.701981,94.092041 
z"/>
<path fill="#E6E6E6" opacity="1.000000" stroke="none" 
	d="
M114.593933,78.647614 
	C115.049461,79.758125 115.294456,80.642815 115.539444,81.527512 
	C115.089920,81.584198 114.640396,81.640884 114.190872,81.697571 
	C114.255043,80.605644 114.319214,79.513725 114.593933,78.647614 
z"/>
<path fill="#F5F5F5" opacity="1.000000" stroke="none" 
	d="
M104.371773,93.444687 
	C103.943428,93.333397 103.683830,93.061150 103.424225,92.788902 
	C103.536972,92.681557 103.742126,92.474693 103.749146,92.481209 
	C104.024178,92.736610 104.281166,93.011436 104.371773,93.444687 
z"/>
<path fill="#F5F5F5" opacity="1.000000" stroke="none" 
	d="
M98.180130,75.994102 
	C96.785919,75.687935 95.916115,75.254158 95.046303,74.820381 
	C95.406456,74.397728 95.766609,73.975075 96.126755,73.552422 
	C97.110489,74.070503 98.094215,74.588593 99.394791,75.292374 
	C99.375931,75.607544 99.040230,75.737015 98.180130,75.994102 
z"/>
<path fill="#E6E6E6" opacity="1.000000" stroke="none" 
	d="
M124.608505,75.991409 
	C124.578171,76.183098 124.324547,76.380867 124.005142,76.302231 
	C123.939354,76.025818 124.385208,75.997505 124.608505,75.991409 
z"/>
<path fill="#E2E2E2" opacity="1.000000" stroke="none" 
	d="
M35.976799,72.707108 
	C39.631111,72.378456 43.284779,72.378456 46.938450,72.378456 
	C46.978615,73.029190 47.018784,73.679924 47.058949,74.330666 
	C44.239704,77.358078 40.251583,75.300552 36.421814,75.760559 
	C35.978210,74.787827 35.977184,73.911789 35.976799,72.707108 
z"/>
<path fill="#E2E2E2" opacity="1.000000" stroke="none" 
	d="
M126.276283,90.656624 
	C126.004608,90.641510 125.855995,90.496712 125.707382,90.351921 
	C125.938034,90.410263 126.168694,90.468605 126.276283,90.656624 
z"/>
<path fill="#E2E2E2" opacity="1.000000" stroke="none" 
	d="
M123.126480,81.789902 
	C123.111633,81.234108 123.393326,80.470894 123.905174,80.025284 
	C123.897896,80.756088 123.660454,81.169289 123.126480,81.789902 
z"/>
<path fill="#EEEEEE" opacity="1.000000" stroke="none" 
	d="
M125.526421,92.542084 
	C125.478531,92.569099 125.574310,92.515060 125.526421,92.542084 
z"/>
</svg>